<svg viewBox="0 0 215 212" fill="none" xmlns="http://www.w3.org/2000/svg">
<path class="svg-icon-path-1" d="M53.9547 35.2084C53.9547 35.2084 86.1138 59.6121 135.004 13.9812C178.423 -26.5434 213.875 37.3952 214.124 68.014C214.446 107.678 170.704 139.414 191.931 165.466C213.159 191.518 149.835 234.538 115.706 197.307C73.2522 150.993 61.7505 188.623 37.5519 188.623C20.1842 188.623 -15.4735 145.469 8.60576 113.363C28.8681 86.3466 17.8178 77.3803 12.4651 68.014C4.74624 54.5059 23.0788 17.8407 53.9547 35.2084Z" fill="#DEE9FF"/>
<path class="svg-icon-path-2" d="M105.987 90.6973V181.258L35.6744 150.887L36.0098 60.6547L105.987 90.6973Z" fill="#418DF9"/>
<path class="svg-icon-path-3" d="M105.988 90.7514V181.312L175.958 151.991V60.9438L105.988 90.7514Z" fill="#A2BDFF"/>
<path class="svg-icon-path-4" d="M105.987 90.6973L176.299 61.247L106.539 30.3242L35.6744 60.5108L105.987 90.6973Z" fill="#699CFF"/>
<path class="svg-icon-path-2" d="M62.1796 49.2202L132.224 79.7078L132.86 101.925L152.458 93.8387L151.865 71.4812L79.7486 41.7362L62.1796 49.2202Z" fill="#418DF9"/>
<path class="svg-icon-path-5" d="M128.235 123.243C129.345 123.243 130.245 121.6 130.245 119.574C130.245 117.548 129.345 115.905 128.235 115.905C127.125 115.905 126.225 117.548 126.225 119.574C126.225 121.6 127.125 123.243 128.235 123.243Z" fill="white"/>
<path class="svg-icon-path-5" d="M160.618 110.049C161.728 110.049 162.628 108.407 162.628 106.381C162.628 104.354 161.728 102.712 160.618 102.712C159.508 102.712 158.608 104.354 158.608 106.381C158.608 108.407 159.508 110.049 160.618 110.049Z" fill="white"/>
<path class="svg-icon-path-5" d="M139.883 142.612L138.578 142.105C141.47 134.659 145.096 130.558 149.357 129.914C153.433 129.298 156.866 132.106 158.111 133.676L157.014 134.546C156.153 133.46 153.136 130.759 149.566 131.298C145.89 131.854 142.542 135.766 139.883 142.612Z" fill="white"/>
</svg>
