<svg version="1.1" xmlns="http://www.w3.org/2000/svg" xmlns:xlink="http://www.w3.org/1999/xlink" class="thumbnail-icon" viewBox="0.0001350720413029194 0.00014401273801922798 200.0000457763672 199.99972534179688"><g data-paper-data="{&quot;fillRule&quot;:&quot;nonzero&quot;,&quot;isIcon&quot;:true,&quot;iconStyle&quot;:&quot;standalone&quot;,&quot;selectedEffects&quot;:{&quot;container&quot;:&quot;circle_simple_filledplus&quot;,&quot;transformation&quot;:&quot;&quot;,&quot;pattern&quot;:&quot;&quot;},&quot;bounds&quot;:{&quot;x&quot;:217.33317160633874,&quot;y&quot;:115,&quot;width&quot;:115.33365678732247,&quot;height&quot;:115.33344342008942},&quot;widthRatioIconToContainer&quot;:0.790000662666304,&quot;heightRatioIconToContainer&quot;:0.773967733295511,&quot;relativeBoundsIconToContainer&quot;:{&quot;top&quot;:0.0005337332142204841,&quot;left&quot;:-0.0030322590269029784},&quot;iconType&quot;:&quot;initial&quot;,&quot;initialText&quot;:&quot;HS&quot;,&quot;rawInitialId&quot;:1087,&quot;blockLetter&quot;:&quot;O&quot;,&quot;blockLetterId&quot;:0,&quot;monogramSpecial&quot;:&quot;emblem&quot;}"><path d="M11.14251,100c0,-49.07451 39.78275,-88.85726 88.85726,-88.85726c49.07451,0 88.85726,39.78275 88.85726,88.85726c0,49.07451 -39.78275,88.85726 -88.85726,88.85726c-49.07451,0 -88.85726,-39.78275 -88.85726,-88.85726zM95.29342,177.50353v-154.79347c-4.64897,0.17218 -9.29794,0.68874 -13.77472,1.72184v63.70811l-45.62878,26.34416c-1.20529,-4.64897 -1.72184,-9.47013 -1.72184,-14.29127c0,-18.25151 7.74828,-34.78118 19.97335,-46.31752l-9.8145,-9.8145c-14.63564,14.11909 -23.93359,34.09245 -23.93359,56.13201c0,24.10577 11.19196,45.80096 28.58256,60.09223l9.8145,-9.8145c-7.74828,-6.02644 -13.94691,-13.77472 -18.25151,-22.7283l40.97981,-23.7614v71.80075c4.47679,1.0331 9.12576,1.54965 13.77472,1.72184zM104.52678,120.16623v57.3373c4.64897,-0.17218 9.29794,-0.68874 13.77472,-1.72184c30.47658,-6.54299 54.23798,-30.99313 59.92005,-61.64189l0.17218,-0.34437l-60.09223,-34.609v-40.63544c20.83428,5.50989 37.53612,21.35083 44.07912,41.66855h14.46346c-7.40391,-28.066 -30.13221,-49.76119 -58.54258,-55.78763c-4.47679,-1.0331 -9.12576,-1.54965 -13.77472,-1.72184v64.39684l57.85385,33.40371c-6.88736,20.14553 -23.41703,35.6421 -44.07912,41.15199v-41.49636zM199.98111,101.97083l-0.02329,0.99865l-0.03334,0.99865l-0.0434,0.99865l-0.05239,0.99812l-0.06298,0.99759l-0.0725,0.99706l-0.08203,0.996l-0.09261,0.996l-0.10214,0.99442l-0.1122,0.99389l-0.12225,0.99283l-0.13231,0.99124l-0.14183,0.99018l-0.15242,0.98859l-0.16247,0.98701l-0.17253,0.98542l-0.18205,0.98383l-0.19264,0.98171l-0.20269,0.98013l-0.21222,0.97748l-0.2228,0.97536l-0.23233,0.97325l-0.24239,0.9706l-0.25191,0.96795l-0.26197,0.96584l-0.27202,0.96266l-0.28155,0.96002l-0.2916,0.95684l-0.30113,0.95366l-0.31066,0.95102l-0.31965,0.94731l-0.32971,0.94414l-0.33923,0.94096l-0.34823,0.93726l-0.35723,0.93355l-0.36675,0.93038l-0.37575,0.92614l-0.38475,0.92244l-0.22651,0.53134l-0.39692,0.91186l-0.4075,0.91239l-0.41703,0.90868l-0.4255,0.90445l-0.43449,0.90021l-0.44402,0.89598l-0.45249,0.89175l-0.46148,0.88698l-0.47048,0.88275l-0.47895,0.87746l-0.48848,0.87322l-0.49694,0.86793l-0.50541,0.86317l-0.51441,0.85787l-0.5234,0.85258l-0.53187,0.84729l-0.54034,0.842l-0.54934,0.83618l-0.55727,0.83088l-0.56627,0.82453l-0.57421,0.81924l-0.58215,0.81342l-0.59115,0.80707l-0.59855,0.80125l-0.60702,0.79543l-0.61496,0.78855l-0.6229,0.78272l-0.63031,0.77637l-0.63825,0.76949l-0.64618,0.76367l-0.65306,0.75679l-0.661,0.75044l-0.66788,0.74356l-0.67529,0.73668l-0.68217,0.73033l-0.68958,0.72345l-0.69593,0.7171l-0.70334,0.70969l-0.40909,0.40697l-0.71022,0.69593l-0.72028,0.69276l-0.72716,0.68535l-0.73404,0.67847l-0.74039,0.67106l-0.74727,0.66418l-0.75415,0.65624l-0.75997,0.64936l-0.76685,0.64142l-0.77373,0.63401l-0.77955,0.6266l-0.7859,0.61814l-0.79225,0.61073l-0.7986,0.60226l-0.80442,0.59485l-0.81077,0.58585l-0.81607,0.57791l-0.82242,0.56998l-0.82824,0.56151l-0.83353,0.55251l-0.83935,0.54457l-0.84517,0.53558l-0.84994,0.52711l-0.85576,0.51864l-0.86052,0.50964l-0.86581,0.50065l-0.87111,0.49218l-0.87587,0.48371l-0.8801,0.47419l-0.88539,0.46572l-0.88963,0.45672l-0.89439,0.4472l-0.8981,0.43873l-0.90286,0.42973l-0.90709,0.42126l-0.9108,0.41174l-0.9145,0.40274l-0.91821,0.39374l-0.90815,0.37893l-0.92562,0.37575l-0.92985,0.36728l-0.93355,0.35776l-0.93673,0.34876l-0.94096,0.33923l-0.94361,0.32971l-0.94731,0.32071l-0.95049,0.31066l-0.95419,0.30113l-0.95631,0.29213l-0.96002,0.28155l-0.96266,0.27255l-0.96531,0.2625l-0.96795,0.25244l-0.9706,0.24291l-0.97325,0.23286l-0.97536,0.2228l-0.97748,0.21275l-0.9796,0.20269l-0.98171,0.19317l-0.98383,0.18258l-0.98542,0.17306l-0.98701,0.16247l-0.98859,0.15295l-0.99018,0.14236l-0.99124,0.13284l-0.99283,0.12278l-0.99389,0.1122l-0.99442,0.10267l-0.996,0.09261l-0.99653,0.08309l-0.99706,0.0725l-0.99759,0.06298l-0.99812,0.05345l-0.99865,0.0434l-0.99865,0.03387l-0.99918,0.02382l-0.99865,0.01429l-0.99918,0.00529l-0.98277,-0.00476l-0.99865,-0.01429l-0.99865,-0.02329l-0.99865,-0.03334l-0.99865,-0.04287l-0.99812,-0.05292l-0.99759,-0.06298l-0.99706,-0.07197l-0.996,-0.08256l-0.996,-0.09209l-0.99452,-0.10267l-0.99378,-0.1122l-0.99262,-0.12172l-0.99145,-0.13231l-0.99008,-0.14236l-0.98865,-0.15242l-0.98716,-0.16247l-0.98542,-0.172l-0.98372,-0.18258l-0.98171,-0.19264l-0.97981,-0.20216l-0.97769,-0.21275l-0.97547,-0.22227l-0.97309,-0.23233l-0.97071,-0.24239l-0.96817,-0.25244l-0.96557,-0.26197l-0.96271,-0.27202l-0.95991,-0.28155l-0.95695,-0.29107l-0.95393,-0.30113l-0.95075,-0.31066l-0.94758,-0.32018l-0.94419,-0.32918l-0.94075,-0.33923l-0.93731,-0.34823l-0.93366,-0.35723l-0.93001,-0.36675l-0.92625,-0.37575l-0.92244,-0.38475l-0.53155,-0.22651l-0.91186,-0.39692l-0.91244,-0.4075l-0.90857,-0.41703l-0.9045,-0.4255l-0.90032,-0.43449l-0.89603,-0.44402l-0.89164,-0.45249l-0.88719,-0.46148l-0.88248,-0.47048l-0.87788,-0.47895l-0.87296,-0.48848l-0.86809,-0.49694l-0.86301,-0.50541l-0.85787,-0.51441l-0.85264,-0.5234l-0.84724,-0.53187l-0.84189,-0.54034l-0.83628,-0.54934l-0.83067,-0.55727l-0.82501,-0.56574l-0.81914,-0.57474l-0.81322,-0.58215l-0.80728,-0.59115l-0.80123,-0.59855l-0.79509,-0.60702l-0.78885,-0.61496l-0.78262,-0.6229l-0.77628,-0.63031l-0.76983,-0.63825l-0.76338,-0.64618l-0.75687,-0.65306l-0.7503,-0.661l-0.74366,-0.66788l-0.73698,-0.67529l-0.73028,-0.68217l-0.72351,-0.68958l-0.71673,-0.69593l-0.70996,-0.70334l-0.40703,-0.40909l-0.69577,-0.71022l-0.69239,-0.72028l-0.6854,-0.72716l-0.67841,-0.73404l-0.67122,-0.74039l-0.66397,-0.74727l-0.65666,-0.75415l-0.64915,-0.75997l-0.64163,-0.76738l-0.63401,-0.7732l-0.62623,-0.77955l-0.6184,-0.7859l-0.61051,-0.79225l-0.60247,-0.7986l-0.59443,-0.80442l-0.58622,-0.81077l-0.57797,-0.8166l-0.56971,-0.82189l-0.5613,-0.82824l-0.55283,-0.83406l-0.54436,-0.83935l-0.53574,-0.84464l-0.52711,-0.85047l-0.51848,-0.85523l-0.50975,-0.86105l-0.50091,-0.86581l-0.49218,-0.87058l-0.48329,-0.87587l-0.47445,-0.8801l-0.46556,-0.88539l-0.45662,-0.88963l-0.44767,-0.89439l-0.43873,-0.8981l-0.42978,-0.90286l-0.42079,-0.90709l-0.41179,-0.9108l-0.40285,-0.9145l-0.3939,-0.91821l-0.37893,-0.90815l-0.37596,-0.92562l-0.36702,-0.92985l-0.35781,-0.93355l-0.34865,-0.93673l-0.33929,-0.94096l-0.32992,-0.94361l-0.32045,-0.94731l-0.31092,-0.95049l-0.30134,-0.95419l-0.29171,-0.95631l-0.28202,-0.96002l-0.27223,-0.96266l-0.2625,-0.96531l-0.2526,-0.96795l-0.2427,-0.9706l-0.23281,-0.97325l-0.22286,-0.97536l-0.21291,-0.97748l-0.20291,-0.9796l-0.19285,-0.98171l-0.18285,-0.98383l-0.17279,-0.98542l-0.16274,-0.98701l-0.15273,-0.98859l-0.14263,-0.99018l-0.13268,-0.99124l-0.12257,-0.99283l-0.11262,-0.99389l-0.10262,-0.99442l-0.09272,-0.996l-0.08272,-0.99653l-0.07287,-0.99706l-0.06298,-0.99759l-0.05319,-0.99812l-0.04345,-0.99865l-0.03371,-0.99865l-0.02403,-0.99918l-0.01439,-0.99865l-0.00487,-0.99918l0.0045,-0.98277l0.01402,-0.99865l0.02366,-0.99865l0.03334,-0.99865l0.04303,-0.99865l0.05282,-0.99812l0.06261,-0.99759l0.07245,-0.99706l0.08235,-0.99653l0.0923,-0.99553l0.10219,-0.99473l0.1122,-0.99373l0.12225,-0.99267l0.1322,-0.9914l0.14226,-0.99013l0.15231,-0.98865l0.16231,-0.98711l0.17242,-0.98547l0.18242,-0.98367l0.19248,-0.98177l0.20248,-0.97981l0.21248,-0.97769l0.22243,-0.97542l0.23244,-0.97314l0.24233,-0.97071l0.25223,-0.96817l0.26207,-0.96552l0.27186,-0.96277l0.28165,-0.95991l0.29134,-0.95695l0.30097,-0.95388l0.3106,-0.95081l0.32013,-0.94753l0.32955,-0.94419l0.33897,-0.94075l0.34828,-0.93726l0.35749,-0.93371l0.3667,-0.93001l0.37575,-0.92625l0.38475,-0.92244l0.22646,-0.53145l0.39687,-0.9118l0.40772,-0.91249l0.41671,-0.90857l0.42566,-0.90445l0.43465,-0.90037l0.4436,-0.89603l0.45254,-0.89164l0.46148,-0.88714l0.47043,-0.88254l0.47927,-0.87783l0.48816,-0.87301l0.49694,-0.86804l0.50578,-0.86301l0.51446,-0.85787l0.52325,-0.85264l0.53187,-0.84729l0.54045,-0.84184l0.54902,-0.83634l0.55749,-0.83067l0.5659,-0.82495l0.57426,-0.81915l0.58257,-0.81326l0.59072,-0.80728l0.59887,-0.80122l0.60692,-0.79509l0.61491,-0.78888l0.62279,-0.78261l0.63052,-0.77627l0.63825,-0.76985l0.64587,-0.76339l0.65333,-0.75687l0.66079,-0.75029l0.66804,-0.74367l0.67524,-0.73698l0.68238,-0.73028l0.68932,-0.72356l0.69625,-0.71673l0.70297,-0.7099l0.40936,-0.40724l0.71022,-0.69583l0.72038,-0.69233l0.72717,-0.68545l0.7339,-0.67836l0.7406,-0.67127l0.74725,-0.66397l0.75384,-0.65666l0.7604,-0.64915l0.76689,-0.64163l0.77333,-0.63401l0.7797,-0.62623l0.78602,-0.6184l0.79226,-0.61051l0.79843,-0.60247l0.80453,-0.59437l0.81056,-0.58628l0.81649,-0.57797l0.82231,-0.56966l0.82813,-0.5613l0.83374,-0.55283l0.8394,-0.54436l0.84486,-0.53574l0.85025,-0.52711l0.85555,-0.51848l0.86073,-0.5097l0.86581,-0.50097l0.87084,-0.49213l0.87571,-0.48334l0.88047,-0.4744l0.88513,-0.46556l0.88973,-0.45662l0.89413,-0.44767l0.89852,-0.43868l0.9027,-0.42978l0.90683,-0.42079l0.9108,-0.41179l0.91471,-0.40285l0.91847,-0.39385l0.90725,-0.37877l0.92588,-0.37596l0.92974,-0.36702l0.93345,-0.35786l0.93705,-0.3486l0.94054,-0.33929l0.94398,-0.32992l0.94737,-0.32045l0.95054,-0.31097l0.95372,-0.30134l0.95679,-0.29171l0.95975,-0.28202l0.96261,-0.27223l0.96536,-0.2625l0.96806,-0.2526l0.97055,-0.24276l0.97303,-0.23281l0.97536,-0.22286l0.97759,-0.21285l0.97976,-0.20291l0.98171,-0.19285l0.98362,-0.18285l0.98542,-0.17279l0.98706,-0.16279l0.98865,-0.15268l0.99013,-0.14268l0.99145,-0.13262l0.99262,-0.12262l0.99378,-0.11262l0.99463,-0.10262l0.996,-0.09272l0.99653,-0.08272l0.99706,-0.07287l0.99759,-0.06298l0.99812,-0.05319l0.99865,-0.04345l0.99865,-0.03371l0.99918,-0.02403l0.99865,-0.01439l0.99918,-0.00487l0.9833,0.0045l0.99865,0.01402l0.99865,0.02366l0.99865,0.03334l0.99865,0.04303l0.99759,0.05282l0.99812,0.06261l0.99706,0.07245l0.996,0.08235l0.996,0.0923l0.99442,0.10225l0.99389,0.1122l0.99283,0.1222l0.99124,0.1322l0.99018,0.14226l0.98859,0.15231l0.98701,0.16237l0.98542,0.17237l0.98383,0.18242l0.98171,0.19248l0.9796,0.20248l0.97801,0.21248l0.97536,0.22249l0.97325,0.23238l0.9706,0.24233l0.96795,0.25223l0.96584,0.26207l0.96266,0.27186l0.96002,0.28165l0.95684,0.29134l0.95366,0.30097l0.95102,0.3106l0.94731,0.32008l0.94414,0.3296l0.94096,0.33892l0.93726,0.34828l0.93355,0.35754l0.93038,0.36665l0.92614,0.37575l0.92244,0.38475l0.53134,0.22635l0.91186,0.39687l0.91239,0.40772l0.90868,0.41671l0.90445,0.42566l0.90021,0.43465l0.89598,0.4436l0.89175,0.45254l0.88698,0.46148l0.88275,0.47043l0.87746,0.47927l0.87322,0.48816l0.86793,0.49694l0.86317,0.50578l0.85787,0.51451l0.85258,0.52319l0.84729,0.53187l0.842,0.54045l0.83618,0.54902l0.83088,0.55749l0.82453,0.5659l0.81924,0.57426l0.81342,0.58257l0.80707,0.59077l0.80125,0.59887l0.79543,0.60692l0.78855,0.61491l0.78272,0.62279l0.77637,0.63052l0.76949,0.63825l0.76367,0.64587l0.75679,0.65338l0.75044,0.66074l0.74356,0.66804l0.73721,0.67529l0.7298,0.68238l0.72398,0.68932l0.71657,0.69625l0.70969,0.70302l0.4075,0.40936l0.69593,0.71017l0.69223,0.72043l0.68535,0.72716l0.67847,0.73388l0.67106,0.74058l0.66418,0.74726l0.65677,0.75383l0.64883,0.7604l0.64195,0.76689l0.63401,0.77331l0.62607,0.77973l0.61814,0.78599l0.61073,0.79228l0.60226,0.79841l0.59485,0.80453l0.58585,0.81057l0.57844,0.81645l0.56945,0.82236l0.56151,0.82808l0.55251,0.8338l0.54457,0.8394l0.53558,0.8448l0.52711,0.85031l0.51864,0.85549l0.50964,0.86079l0.50065,0.86581l0.49218,0.87084l0.48371,0.87566l0.47419,0.88053l0.46572,0.88513l0.45672,0.88973l0.4472,0.89413l0.43873,0.89852l0.42973,0.9027l0.42126,0.90683l0.41174,0.9108l0.40274,0.91471l0.39374,0.91847l0.37893,0.90746l0.37575,0.92583l0.36728,0.92974l0.35776,0.93345l0.34876,0.93705l0.33923,0.94054l0.32971,0.94403l0.32071,0.94731l0.31066,0.95054l0.30166,0.95372l0.2916,0.95679l0.28208,0.95975l0.27202,0.96261l0.2625,0.96536l0.25297,0.96801l0.24239,0.97065l0.23286,0.97293l0.2228,0.97542l0.21328,0.97759l0.20269,0.97976l0.19264,0.98171l0.18311,0.98362l0.17306,0.98542l0.16247,0.98706l0.15295,0.98865l0.14236,0.99013l0.13284,0.9914l0.12225,0.99272l0.11273,0.99373l0.10267,0.99479l0.09261,0.99584l0.08309,0.99653l0.0725,0.99706l0.06298,0.99759l0.05345,0.99812l0.0434,0.99865l0.03387,0.99865l0.02382,0.99918l0.01429,0.99865l0.00529,0.99918v0.02223l-0.00476,0.96107zM195.30381,99.05692l-0.01376,-0.95366l-0.02223,-0.95366l-0.03228,-0.95314l-0.04128,-0.95261l-0.05028,-0.95208l-0.0598,-0.95155l-0.06933,-0.95102l-0.07885,-0.94996l-0.08785,-0.94885l-0.09791,-0.948l-0.1069,-0.94689l-0.11643,-0.94567l-0.12596,-0.94446l-0.13601,-0.94303l-0.14501,-0.9416l-0.15506,-0.94001l-0.16406,-0.93832l-0.17412,-0.93662l-0.18311,-0.93477l-0.19317,-0.93276l-0.20216,-0.93086l-0.21222,-0.92863l-0.22122,-0.92657l-0.23074,-0.92413l-0.2408,-0.92186l-0.24927,-0.91932l-0.25932,-0.91678l-0.26832,-0.91418l-0.27784,-0.91149l-0.28684,-0.90863l-0.29584,-0.90582l-0.30536,-0.90281l-0.31436,-0.89979l-0.32283,-0.89672l-0.33235,-0.89354l-0.34135,-0.89026l-0.34982,-0.88698l-0.35829,-0.88381l-0.36146,-0.86581l-0.37575,-0.87661l-0.38422,-0.8728l-0.39269,-0.86894l-0.40062,-0.86486l-0.40962,-0.86089l-0.41809,-0.8566l-0.42656,-0.85237l-0.43502,-0.84798l-0.44349,-0.84353l-0.45143,-0.83898l-0.46043,-0.83438l-0.46836,-0.82961l-0.47736,-0.8248l-0.4853,-0.81988l-0.49324,-0.8149l-0.50171,-0.80982l-0.51017,-0.80469l-0.51811,-0.7994l-0.52605,-0.7941l-0.53452,-0.78876l-0.54246,-0.78325l-0.55039,-0.77775l-0.5578,-0.77209l-0.56627,-0.76646l-0.57368,-0.76075l-0.58109,-0.75491l-0.58903,-0.7491l-0.59697,-0.74314l-0.60385,-0.73722l-0.61178,-0.73119l-0.61866,-0.72511l-0.62607,-0.71904l-0.63295,-0.71285l-0.64036,-0.70669l-0.64724,-0.70045l-0.65412,-0.69419l-0.66047,-0.6879l-0.67106,-0.68497l-0.3821,-0.38446l-0.67794,-0.6714l-0.68376,-0.66476l-0.69064,-0.65804l-0.69646,-0.65127l-0.70281,-0.64428l-0.70916,-0.63729l-0.71551,-0.63025l-0.72133,-0.62306l-0.72716,-0.61575l-0.73404,-0.60845l-0.73933,-0.60104l-0.74568,-0.59353l-0.75097,-0.58596l-0.75732,-0.57834l-0.76314,-0.57061l-0.76844,-0.56283l-0.77479,-0.555l-0.77955,-0.54706l-0.7859,-0.53912l-0.79066,-0.53108l-0.79648,-0.52298l-0.80125,-0.51488l-0.80707,-0.50668l-0.81183,-0.49853l-0.8166,-0.49022l-0.82189,-0.48191l-0.82718,-0.4736l-0.83141,-0.46524l-0.83618,-0.45688l-0.84094,-0.44847l-0.84517,-0.44l-0.84994,-0.43158l-0.85417,-0.42312l-0.8584,-0.4147l-0.86264,-0.40618l-0.86687,-0.39771l-0.87058,-0.38925l-0.87851,-0.38268l-0.49853,-0.21238l-0.8801,-0.36728l-0.88328,-0.35866l-0.88698,-0.34992l-0.89016,-0.34109l-0.89333,-0.33219l-0.89651,-0.3233l-0.89968,-0.31425l-0.90286,-0.3052l-0.90551,-0.2961l-0.90868,-0.28695l-0.91133,-0.27768l-0.91397,-0.26848l-0.91715,-0.25911l-0.91927,-0.24979l-0.92138,-0.24037l-0.92456,-0.23095l-0.92614,-0.22153l-0.92879,-0.21201l-0.93091,-0.20253l-0.9325,-0.19306l-0.93514,-0.18348l-0.93673,-0.1739l-0.93832,-0.16443l-0.9399,-0.15485l-0.94149,-0.14527l-0.94308,-0.13575l-0.94467,-0.12617l-0.94573,-0.11669l-0.94678,-0.10717l-0.94837,-0.09764l-0.9489,-0.08822l-0.94996,-0.0787l-0.95102,-0.06933l-0.95155,-0.05996l-0.95208,-0.05059l-0.95314,-0.04128l-0.95314,-0.03202l-0.95366,-0.02281l-0.95419,-0.01365l-0.93885,-0.0045l-0.95419,0.00445l-0.95366,0.01355l-0.95366,0.02276l-0.95314,0.03191l-0.95261,0.04123l-0.95208,0.05049l-0.95155,0.05991l-0.95102,0.06922l-0.94996,0.07864l-0.9489,0.08812l-0.94784,0.09759l-0.947,0.10706l-0.94573,0.11659l-0.9444,0.12611l-0.94303,0.13564l-0.9416,0.14517l-0.94001,0.15475l-0.93832,0.16432l-0.93662,0.17385l-0.93477,0.18343l-0.93281,0.1929l-0.9308,0.20248l-0.92869,0.21195l-0.92652,0.22143l-0.92419,0.23085l-0.92181,0.24032l-0.91937,0.24969l-0.91678,0.25911l-0.91418,0.26837l-0.91143,0.27763l-0.90868,0.28689l-0.90582,0.29605l-0.90281,0.30515l-0.89979,0.31425l-0.89672,0.3232l-0.89354,0.33219l-0.89026,0.34109l-0.88698,0.34987l-0.88381,0.35866l-0.8656,0.36114l-0.87661,0.37564l-0.8728,0.38416l-0.86888,0.39258l-0.86491,0.4011l-0.86084,0.40957l-0.85666,0.41804l-0.85237,0.4265l-0.84798,0.43492l-0.84353,0.44339l-0.83898,0.45185l-0.83438,0.46021l-0.82961,0.46858l-0.8248,0.47694l-0.81988,0.48525l-0.8149,0.49356l-0.80982,0.50176l-0.80463,0.50996l-0.79945,0.51816l-0.7941,0.52626l-0.78876,0.53431l-0.78325,0.5423l-0.7777,0.55029l-0.77214,0.55817l-0.76648,0.56595l-0.76071,0.57379l-0.75495,0.58141l-0.74908,0.58908l-0.74317,0.5966l-0.7372,0.60406l-0.73119,0.61147l-0.72512,0.61877l-0.71902,0.62602l-0.71287,0.63311l-0.70668,0.6402l-0.70046,0.64719l-0.6942,0.65407l-0.6879,0.66084l-0.68498,0.6709l-0.38437,0.38218l-0.6714,0.67771l-0.66476,0.68405l-0.65806,0.69035l-0.65121,0.69664l-0.64428,0.70289l-0.63729,0.7091l-0.63025,0.71528l-0.623,0.72141l-0.61581,0.72751l-0.60845,0.73355l-0.60104,0.73955l-0.59353,0.7455l-0.58596,0.75139l-0.57828,0.75723l-0.57061,0.76303l-0.56283,0.7687l-0.555,0.77436l-0.54706,0.77992l-0.53912,0.78548l-0.53108,0.79087l-0.52298,0.79627l-0.51488,0.80157l-0.50668,0.80675l-0.49853,0.81189l-0.49022,0.81697l-0.48191,0.82189l-0.4736,0.82676l-0.46524,0.83157l-0.45688,0.83628l-0.44847,0.84089l-0.44,0.84544l-0.43158,0.84983l-0.42317,0.85417l-0.41465,0.8584l-0.40618,0.86258l-0.39771,0.86666l-0.38925,0.87058l-0.38268,0.87889l-0.21248,0.49837l-0.36734,0.88005l-0.3586,0.88344l-0.34992,0.88688l-0.34109,0.89016l-0.33225,0.89344l-0.32325,0.89656l-0.31431,0.89974l-0.3052,0.9027l-0.2961,0.90572l-0.28695,0.90857l-0.27768,0.91138l-0.26848,0.91408l-0.25911,0.91678l-0.24979,0.91927l-0.24037,0.92181l-0.23095,0.92413l-0.22153,0.92646l-0.21206,0.92863l-0.20253,0.9308l-0.19301,0.93281l-0.18348,0.93477l-0.17396,0.93662l-0.16438,0.93837l-0.15485,0.94001l-0.14527,0.94165l-0.13575,0.94308l-0.12622,0.94446l-0.11664,0.94578l-0.10717,0.94694l-0.09764,0.94811l-0.08822,0.94885l-0.07875,0.95049l-0.06933,0.95049l-0.05991,0.95155l-0.05059,0.95261l-0.04133,0.95261l-0.03202,0.95314l-0.02276,0.95366l-0.01365,0.95419l-0.0045,0.93885l0.00445,0.95419l0.01355,0.95366l0.0227,0.95366l0.03197,0.95314l0.04123,0.95261l0.05049,0.95208l0.05986,0.95155l0.06928,0.95102l0.07864,0.94996l0.08812,0.9489l0.09759,0.94784l0.10706,0.94678l0.11654,0.94573l0.12611,0.94467l0.13564,0.94308l0.14522,0.94149l0.15475,0.9399l0.16432,0.93832l0.17385,0.93673l0.18338,0.93461l0.19296,0.93302l0.20243,0.93091l0.21195,0.92879l0.22143,0.92614l0.2309,0.92456l0.24027,0.92138l0.24974,0.91979l0.25906,0.91662l0.26837,0.91397l0.27763,0.91186l0.28684,0.90815l0.29605,0.90603l0.30515,0.90286l0.31425,0.89968l0.32325,0.89704l0.33214,0.89333l0.34109,0.89016l0.34987,0.88698l0.35866,0.88381l0.3613,0.86581l0.37564,0.87693l0.38416,0.87269l0.39263,0.86899l0.4011,0.86475l0.40957,0.86105l0.41804,0.85629l0.4265,0.85258l0.43497,0.84782l0.44339,0.84359l0.4518,0.83882l0.46027,0.83459l0.46858,0.82983l0.47694,0.82453l0.48525,0.81977l0.49356,0.81501l0.50181,0.80972l0.50996,0.80495l0.51816,0.79913l0.52626,0.79437l0.53431,0.78855l0.54235,0.78325l0.55024,0.77796l0.55817,0.77214l0.56601,0.76632l0.57373,0.7605l0.58146,0.75521l0.58903,0.74885l0.5966,0.74356l0.60411,0.73721l0.61147,0.73086l0.61877,0.72504l0.62597,0.71922l0.63317,0.71287l0.6402,0.70652l0.64719,0.70069l0.65402,0.69434l0.66085,0.68746l0.67094,0.68535l0.38199,0.38422l0.67771,0.67106l0.68403,0.66524l0.69035,0.65783l0.69663,0.65095l0.70289,0.6446l0.7091,0.63719l0.71526,0.63031l0.7214,0.6229l0.72752,0.61602l0.73357,0.60861l0.73953,0.60067l0.74548,0.59379l0.7514,0.58585l0.75722,0.57844l0.76304,0.57051l0.7687,0.56257l0.77436,0.55516l0.77992,0.54722l0.78548,0.53875l0.79087,0.53134l0.79627,0.52287l0.80151,0.51494l0.8068,0.507l0.81189,0.498l0.81691,0.49059l0.82194,0.4816l0.82676,0.47366l0.83157,0.46519l0.83628,0.45725l0.84089,0.44825l0.84539,0.44032l0.84988,0.43132l0.85417,0.42338l0.8584,0.41438l0.86258,0.40645l0.86661,0.39745l0.87058,0.38951l0.87894,0.38263l0.49837,0.21222l0.88005,0.36728l0.88349,0.35882l0.88682,0.34982l0.89021,0.34135l0.89339,0.33182l0.89661,0.32336l0.89974,0.31436l0.9027,0.30536l0.90572,0.29584l0.90857,0.28684l0.91138,0.27784l0.91408,0.26832l0.91683,0.25932l0.91927,0.24979l0.92175,0.24027l0.92413,0.23074l0.92652,0.22175l0.92863,0.21222l0.9308,0.20216l0.93281,0.19317l0.93482,0.18364l0.93652,0.17359l0.93848,0.16459l0.93996,0.15506l0.94165,0.14501l0.94308,0.13601l0.94446,0.12596l0.94578,0.11643l0.94694,0.10743l0.94784,0.09738l0.94943,0.08838l0.94996,0.07885l0.95102,0.06933l0.95155,0.0598l0.95208,0.05081l0.95314,0.04128l0.95314,0.03175l0.95366,0.02276l0.95419,0.01376l0.93832,0.00423l0.95419,-0.00423l0.95366,-0.01376l0.95366,-0.02223l0.95314,-0.03228l0.95261,-0.04128l0.95208,-0.05028l0.95155,-0.0598l0.95102,-0.06933l0.94996,-0.07885l0.9489,-0.08785l0.94784,-0.09791l0.94678,-0.1069l0.94573,-0.11643l0.94467,-0.12596l0.94308,-0.13601l0.94149,-0.14501l0.9399,-0.15453l0.93832,-0.16459l0.93673,-0.17359l0.93461,-0.18364l0.93302,-0.19264l0.93091,-0.20269l0.92879,-0.21169l0.92614,-0.22175l0.92456,-0.23074l0.92138,-0.24027l0.91979,-0.24979l0.91662,-0.25879l0.91397,-0.26832l0.91186,-0.27784l0.90868,-0.28684l0.90551,-0.29584l0.90286,-0.30536l0.89968,-0.31436l0.89704,-0.32336l0.89333,-0.33182l0.89016,-0.34135l0.88698,-0.34982l0.88381,-0.35829l0.86634,-0.36146l0.8764,-0.37575l0.87269,-0.38422l0.86899,-0.39269l0.86475,-0.40062l0.86105,-0.40962l0.85629,-0.41809l0.85258,-0.42656l0.84782,-0.43502l0.84359,-0.44349l0.83935,-0.45143l0.83406,-0.46043l0.82983,-0.46836l0.82453,-0.47736l0.8203,-0.4853l0.81448,-0.49324l0.80972,-0.50171l0.80495,-0.51017l0.79913,-0.51811l0.79437,-0.52605l0.78855,-0.53452l0.78325,-0.54246l0.77796,-0.55039l0.77214,-0.5578l0.76632,-0.56627l0.76103,-0.57368l0.75468,-0.58162l0.74885,-0.58903l0.74356,-0.59644l0.73721,-0.60385l0.73086,-0.61178l0.72504,-0.61866l0.71922,-0.62607l0.71287,-0.63295l0.70652,-0.64036l0.70069,-0.64724l0.69381,-0.65412l0.68799,-0.66047l0.68535,-0.67106l0.38422,-0.3821l0.67106,-0.67794l0.66471,-0.68376l0.65836,-0.69064l0.65095,-0.69646l0.6446,-0.70281l0.63719,-0.70916l0.63031,-0.71551l0.6229,-0.72133l0.61602,-0.72769l0.60808,-0.73351l0.6012,-0.73933l0.59379,-0.74568l0.58585,-0.75097l0.57844,-0.75732l0.57051,-0.76314l0.56257,-0.76896l0.55516,-0.77426l0.54722,-0.77955l0.53875,-0.7859l0.53134,-0.79066l0.52287,-0.79648l0.51494,-0.80125l0.507,-0.80707l0.498,-0.81183l0.49059,-0.8166l0.4816,-0.82189l0.47366,-0.82718l0.46519,-0.83141l0.45725,-0.83618l0.44825,-0.84094l0.44032,-0.84517l0.43132,-0.84994l0.42338,-0.85417l0.41438,-0.8584l0.40645,-0.86264l0.39745,-0.86687l0.38951,-0.87058l0.38263,-0.87851l0.21222,-0.49853l0.36728,-0.8801l0.35882,-0.88328l0.34982,-0.88698l0.34135,-0.89016l0.33182,-0.89333l0.32336,-0.89651l0.31436,-0.89968l0.30536,-0.90286l0.29584,-0.90551l0.28737,-0.90868l0.27731,-0.91133l0.26885,-0.91397l0.25879,-0.91715l0.24979,-0.91927l0.24027,-0.92138l0.23127,-0.92456l0.22122,-0.92614l0.21222,-0.92879l0.20269,-0.93091l0.19317,-0.9325l0.18311,-0.93514l0.17412,-0.9362l0.16459,-0.93885l0.15453,-0.9399l0.14554,-0.94149l0.13548,-0.94308l0.12648,-0.94467l0.11643,-0.94573l0.10743,-0.94678l0.09738,-0.94784l0.08838,-0.94943l0.07885,-0.94996l0.06933,-0.95102l0.0598,-0.95155l0.05081,-0.95208l0.04128,-0.95314l0.03175,-0.95314l0.02276,-0.95366l0.01376,-0.95419l0.00423,-0.93885v-0.02223z" fill-rule="nonzero" fill="#FFFFFF"></path></g></svg>